<?xml version="1.0" encoding="utf-8"?>
<!-- Generator: Adobe Illustrator 22.0.1, SVG Export Plug-In . SVG Version: 6.00 Build 0)  -->
<svg version="1.1" id="Capa_1" xmlns="http://www.w3.org/2000/svg" xmlns:xlink="http://www.w3.org/1999/xlink" x="0px" y="0px"
	 viewBox="0 0 40 40" style="enable-background:new 0 0 40 40;" xml:space="preserve">
<style type="text/css">
	.st0{clip-path:url(#SVGID_2_);fill:#E3E3E3;}
	.st1{fill:#FFFFFF;}
	.st2{fill:url(#SVGID_3_);}
	.st3{opacity:0.8;}
	.st4{fill:#D07400;}
	.st5{clip-path:url(#SVGID_5_);}
</style>
<title>spinner6</title>
<g>
	<g>
		<g>
			<g>
				<defs>
					<rect id="SVGID_1_" x="-8.1" y="14.2" width="12.1" height="11.7"/>
				</defs>
				<clipPath id="SVGID_2_">
					<use xlink:href="#SVGID_1_"  style="overflow:visible;"/>
				</clipPath>
				<path class="st0" d="M2.7,24.2"/>
			</g>
		</g>
	</g>
	<path d="M-2.3,22.1"/>
</g>
<g>
	<g>
		<ellipse class="st1" cx="20" cy="20" rx="19" ry="19"/>
		
			<linearGradient id="SVGID_3_" gradientUnits="userSpaceOnUse" x1="11.23" y1="1070.6982" x2="33.7949" y2="1090.6689" gradientTransform="matrix(1 0 0 1 0 -1058.46)">
			<stop  offset="0.2449" style="stop-color:#F2F2F2"/>
			<stop  offset="0.5851" style="stop-color:#F0F0F0"/>
			<stop  offset="0.7075" style="stop-color:#E9E9E9"/>
			<stop  offset="0.7389" style="stop-color:#E6E6E6"/>
			<stop  offset="1" style="stop-color:#B3B3B3"/>
		</linearGradient>
		<circle class="st2" cx="20" cy="20" r="18.6"/>
	</g>
	<g class="st3">
		<circle class="st4" cx="19.9" cy="19.7" r="12.4"/>
	</g>
</g>
<g>
	<g>
		<g>
			<g>
				<defs>
					<rect id="SVGID_4_" x="-22.3" y="13.2" width="12.1" height="11.7"/>
				</defs>
				<clipPath id="SVGID_5_">
					<use xlink:href="#SVGID_4_"  style="overflow:visible;"/>
				</clipPath>
				<path class="st5" d="M-10.5,21.8l-4-7.5c-0.4-0.7-1.1-1.1-1.8-1.1s-1.5,0.4-1.8,1.1l-4,7.5c-0.3,0.6-0.3,1.4,0.1,2s1.1,1,1.8,1
					h7.9c0.7,0,1.4-0.4,1.8-1C-10.1,23.2-10.1,22.4-10.5,21.8L-10.5,21.8z M-11.5,23.2c-0.2,0.3-0.4,0.4-0.7,0.4h-8
					c-0.3,0-0.6-0.2-0.7-0.4c-0.2-0.3-0.2-0.6,0-0.9l4-7.5c0.2-0.3,0.4-0.5,0.8-0.5c0.3,0,0.6,0.2,0.8,0.5l4,7.5
					C-11.4,22.6-11.4,23-11.5,23.2L-11.5,23.2z"/>
			</g>
		</g>
	</g>
	<path d="M-16.5,21.1h0.5l0.4-4.6H-17L-16.5,21.1z"/>
	<path d="M-16.3,21.5c-0.4,0-0.7,0.3-0.7,0.7s0.3,0.7,0.7,0.7c0.4,0,0.7-0.3,0.7-0.7S-15.9,21.5-16.3,21.5L-16.3,21.5z"/>
</g>
</svg>
