<?xml version="1.0" encoding="UTF-8"?><svg id="Capa_1" xmlns="http://www.w3.org/2000/svg" viewBox="0 0 595.28 186.42"><defs><style>.cls-1{fill:#cc151e;}.cls-2{fill:#1e1e1c;}.cls-3{fill:#585857;}.cls-4{fill:#e85912;}.cls-5{fill:#f19304;}</style></defs><g><path class="cls-3" d="M172.85,149.81c-1.22,0-2.32-.2-3.29-.61-.96-.41-1.79-.98-2.47-1.71-.69-.72-1.21-1.57-1.57-2.53-.36-.96-.54-2-.54-3.11v-.05c0-1.06,.19-2.07,.56-3.04,.38-.96,.9-1.82,1.58-2.56,.68-.74,1.49-1.32,2.44-1.76,.95-.43,2.02-.65,3.18-.65,.65,0,1.24,.04,1.78,.13,.54,.09,1.04,.22,1.51,.4,.46,.18,.9,.4,1.31,.65,.4,.26,.8,.55,1.18,.87l-1.12,1.33c-.3-.27-.61-.51-.93-.72-.32-.22-.67-.4-1.05-.55-.37-.15-.79-.28-1.24-.36-.45-.09-.95-.14-1.5-.14-.85,0-1.64,.17-2.36,.51-.73,.34-1.34,.8-1.86,1.37-.52,.57-.92,1.25-1.22,2.02-.3,.78-.45,1.59-.45,2.44v.04c0,.93,.15,1.79,.43,2.57,.29,.78,.7,1.46,1.23,2.03,.53,.58,1.17,1.03,1.92,1.35,.76,.33,1.6,.49,2.54,.49,.89,0,1.72-.15,2.5-.45,.78-.3,1.44-.67,1.97-1.09v-3.85h-4.72v-1.57h6.4v6.17c-.72,.65-1.61,1.21-2.67,1.67-1.05,.47-2.24,.7-3.55,.7"/><path class="cls-3" d="M188.95,141.96c.57,0,1.11-.07,1.59-.22,.49-.15,.91-.36,1.26-.63,.35-.28,.63-.61,.83-1,.2-.39,.3-.84,.3-1.34v-.05c0-.96-.35-1.71-1.05-2.25-.69-.54-1.66-.8-2.92-.8h-4.78v6.28h4.76Zm-6.51-7.9h6.65c.96,0,1.81,.14,2.55,.41,.74,.28,1.36,.65,1.85,1.14,.38,.38,.68,.83,.88,1.35,.21,.52,.31,1.08,.31,1.71v.04c0,.65-.1,1.23-.31,1.74-.2,.51-.49,.95-.87,1.33-.37,.37-.82,.69-1.34,.93-.51,.24-1.08,.41-1.68,.52l4.75,6.33h-2.15l-4.49-6.02h-4.41v6.02h-1.75v-15.49Z"/><path class="cls-3" d="M204.09,149.79c-.96,0-1.83-.15-2.62-.44-.79-.29-1.46-.71-2.03-1.28-.57-.57-1.01-1.28-1.32-2.11-.31-.84-.46-1.81-.46-2.9v-9h1.75v8.89c0,1.69,.41,2.97,1.25,3.88,.83,.9,1.99,1.35,3.48,1.35s2.57-.43,3.41-1.28c.84-.86,1.26-2.13,1.26-3.83v-9h1.75v8.87c0,1.13-.15,2.13-.46,2.99-.31,.86-.75,1.57-1.32,2.15-.57,.58-1.25,1.01-2.03,1.29-.79,.29-1.67,.44-2.64,.44"/><path class="cls-3" d="M219.71,142.51c.64,0,1.21-.08,1.74-.24,.52-.16,.97-.4,1.35-.7,.38-.3,.66-.66,.87-1.08,.2-.41,.3-.88,.3-1.4v-.04c0-1.11-.38-1.95-1.14-2.52-.76-.57-1.77-.85-3.02-.85h-3.91v6.83h3.83Zm-5.58-8.45h5.79c.87,0,1.66,.12,2.37,.34,.72,.23,1.32,.55,1.83,.97,.51,.42,.9,.94,1.17,1.54,.27,.6,.41,1.29,.41,2.05v.05c0,.84-.16,1.57-.49,2.2-.32,.63-.76,1.15-1.31,1.58-.55,.42-1.2,.75-1.93,.96-.73,.22-1.51,.32-2.34,.32h-3.75v5.47h-1.75v-15.49Z"/><path class="cls-3" d="M235.59,148.2c.88,0,1.7-.17,2.44-.5,.74-.33,1.38-.79,1.91-1.36,.53-.57,.95-1.25,1.25-2.01,.3-.77,.45-1.59,.45-2.48v-.05c0-.88-.15-1.71-.45-2.49-.3-.77-.73-1.45-1.27-2.02-.54-.57-1.19-1.03-1.93-1.37-.74-.34-1.56-.51-2.44-.51s-1.7,.17-2.45,.5c-.74,.33-1.38,.79-1.91,1.36-.53,.57-.95,1.25-1.25,2.01-.3,.77-.45,1.59-.45,2.48v.04c0,.89,.15,1.72,.45,2.49,.3,.77,.73,1.45,1.27,2.02,.55,.58,1.19,1.03,1.93,1.38,.75,.34,1.56,.51,2.45,.51m-.04,1.61c-1.18,0-2.26-.21-3.22-.64-.97-.42-1.8-1-2.49-1.73-.69-.73-1.23-1.58-1.6-2.55-.38-.96-.57-1.98-.57-3.04v-.05c0-1.06,.19-2.08,.57-3.05,.39-.97,.92-1.82,1.62-2.56,.69-.73,1.53-1.31,2.5-1.75,.97-.43,2.05-.65,3.23-.65s2.25,.22,3.22,.64,1.8,1.01,2.49,1.73c.69,.73,1.23,1.58,1.6,2.55,.38,.97,.57,1.98,.57,3.04,.01,.02,.01,.03,0,.04,0,1.06-.19,2.08-.58,3.05-.38,.97-.92,1.82-1.62,2.56-.69,.73-1.52,1.31-2.5,1.75-.97,.44-2.05,.65-3.23,.65"/><path class="cls-3" d="M258,149.76c-1.24,0-2.37-.2-3.39-.61-1.03-.4-2-1.03-2.93-1.87l1.08-1.29c.81,.74,1.63,1.29,2.45,1.65,.83,.36,1.78,.54,2.86,.54s1.88-.25,2.51-.74c.63-.49,.94-1.12,.94-1.89v-.05c0-.35-.06-.67-.18-.96-.12-.29-.32-.55-.62-.78-.29-.23-.7-.45-1.23-.64-.52-.19-1.19-.38-2-.56-.88-.19-1.66-.41-2.31-.66-.66-.25-1.2-.55-1.62-.91-.43-.35-.75-.76-.95-1.24-.21-.47-.31-1.02-.31-1.66v-.04c0-.61,.12-1.17,.37-1.68,.25-.51,.61-.96,1.06-1.34,.46-.38,.99-.67,1.62-.89,.62-.21,1.3-.32,2.03-.32,1.14,0,2.13,.16,2.97,.48,.85,.32,1.67,.79,2.47,1.43l-1.01,1.35c-.72-.59-1.45-1.02-2.18-1.28-.73-.27-1.49-.4-2.29-.4-1.02,0-1.82,.24-2.41,.72-.59,.48-.89,1.08-.89,1.78v.05c0,.36,.06,.7,.18,.98,.12,.29,.33,.56,.64,.8,.31,.24,.74,.46,1.28,.66,.55,.2,1.25,.39,2.1,.56,1.72,.38,2.99,.92,3.81,1.6,.82,.68,1.23,1.61,1.23,2.78v.05c0,.66-.13,1.27-.39,1.8-.26,.54-.62,1-1.08,1.38-.46,.39-1.02,.68-1.66,.88-.65,.21-1.36,.31-2.13,.31"/></g><path class="cls-3" d="M276.01,143.88l-3.52-7.9-3.54,7.9h7.06Zm-4.31-9.93h1.64l7.06,15.59h-1.88l-1.82-4.09h-8.43l-1.84,4.09h-1.79l7.06-15.59Z"/><polygon class="cls-3" points="282.89 134.06 284.53 134.06 294.29 146.47 294.29 134.06 295.99 134.06 295.99 149.54 294.6 149.54 284.6 136.85 284.6 149.54 282.89 149.54 282.89 134.06"/><polygon class="cls-3" points="298.16 134.06 301.92 134.06 305.97 144.96 310.02 134.06 313.69 134.06 307.43 149.66 304.42 149.66 298.16 134.06"/><path class="cls-3" d="M322.21,143.06l-2.06-5.02-2.05,5.02h4.11Zm-3.58-9.11h3.13l6.64,15.59h-3.56l-1.42-3.47h-6.55l-1.42,3.47h-3.47l6.64-15.59Z"/><polygon class="cls-3" points="330.24 134.06 333.65 134.06 333.65 146.47 341.38 146.47 341.38 149.54 330.24 149.54 330.24 134.06"/><polygon class="cls-3" points="343.38 134.06 355.04 134.06 355.04 137.09 346.75 137.09 346.75 140.23 354.05 140.23 354.05 143.26 346.75 143.26 346.75 146.52 355.16 146.52 355.16 149.54 343.38 149.54 343.38 134.06"/><g><path class="cls-3" d="M364.52,141.58c.84,0,1.48-.19,1.93-.59,.45-.4,.67-.93,.67-1.59v-.05c0-.74-.23-1.29-.71-1.66-.47-.37-1.12-.55-1.97-.55h-3.38v4.45h3.45Zm-6.86-7.52h7.08c1.96,0,3.46,.52,4.51,1.57,.88,.88,1.33,2.07,1.33,3.54v.05c0,1.25-.31,2.28-.92,3.06-.61,.79-1.42,1.37-2.4,1.74l3.78,5.53h-3.98l-3.32-4.96h-2.68v4.96h-3.41v-15.49Z"/><path class="cls-3" d="M380.67,146.67c.67,0,1.3-.13,1.88-.38,.57-.25,1.06-.6,1.47-1.04,.4-.44,.72-.95,.95-1.54,.23-.58,.34-1.2,.34-1.87v-.05c0-.66-.11-1.29-.34-1.88-.23-.59-.55-1.1-.98-1.55-.42-.44-.92-.79-1.5-1.05-.57-.26-1.2-.39-1.87-.39s-1.32,.13-1.89,.38c-.57,.25-1.06,.6-1.47,1.04-.4,.44-.72,.96-.95,1.54-.23,.59-.35,1.21-.35,1.87v.04c0,.67,.12,1.29,.35,1.88,.22,.59,.55,1.1,.97,1.55,.42,.44,.92,.79,1.48,1.05,.57,.26,1.2,.39,1.9,.39m-.04,3.14c-1.2,0-2.29-.21-3.3-.63-1-.42-1.87-.98-2.6-1.7-.74-.72-1.3-1.56-1.71-2.53-.4-.96-.61-2-.61-3.11v-.05c0-1.11,.21-2.14,.62-3.11,.41-.96,.98-1.81,1.71-2.54,.73-.73,1.6-1.3,2.61-1.73,1.01-.42,2.11-.63,3.31-.63s2.29,.21,3.3,.63c1,.42,1.87,.99,2.6,1.7,.74,.72,1.3,1.56,1.71,2.52,.41,.97,.61,2,.61,3.11v.04c0,1.11-.2,2.15-.62,3.11-.41,.97-.98,1.81-1.71,2.54-.73,.73-1.6,1.31-2.61,1.73-1.01,.42-2.11,.63-3.31,.63"/><path class="cls-2" d="M81.24,110.22c-3.23,0-6.15-.54-8.75-1.62-2.61-1.08-5.12-2.7-7.55-4.85l1.97-2.26c1.11,1.03,2.23,1.93,3.32,2.69,1.1,.75,2.22,1.36,3.39,1.85,1.15,.48,2.37,.85,3.64,1.1,1.27,.25,2.66,.38,4.16,.38s2.9-.2,4.16-.61c1.28-.4,2.35-.96,3.25-1.67,.88-.71,1.57-1.56,2.07-2.54,.5-.98,.75-2.05,.75-3.21v-.12c0-1.08-.16-2.05-.5-2.89-.32-.85-.93-1.62-1.79-2.31-.87-.7-2.03-1.32-3.5-1.88-1.47-.56-3.36-1.07-5.67-1.53-2.42-.5-4.51-1.09-6.24-1.76-1.74-.67-3.16-1.47-4.25-2.37-1.1-.9-1.91-1.96-2.4-3.15-.5-1.19-.75-2.57-.75-4.1v-.12c0-1.5,.32-2.9,.98-4.19,.66-1.29,1.56-2.42,2.71-3.38,1.16-.96,2.53-1.72,4.11-2.26,1.57-.54,3.31-.81,5.2-.81,2.93,0,5.47,.41,7.61,1.22,2.14,.81,4.23,2.04,6.27,3.7l-1.91,2.37c-1.93-1.66-3.86-2.83-5.81-3.52-1.95-.7-4.04-1.05-6.27-1.05-1.5,0-2.86,.21-4.07,.61-1.21,.4-2.25,.95-3.12,1.65-.87,.69-1.53,1.5-2,2.43-.46,.92-.69,1.91-.69,2.95v.12c0,1.08,.17,2.05,.49,2.92,.33,.87,.93,1.66,1.79,2.37,.87,.72,2.08,1.36,3.62,1.94,1.55,.58,3.51,1.12,5.9,1.62,4.7,.96,8.1,2.32,10.17,4.08,2.09,1.75,3.12,4.11,3.12,7.08v.12c0,1.62-.34,3.11-1.01,4.48-.67,1.37-1.59,2.54-2.78,3.5-1.17,.96-2.58,1.71-4.21,2.26-1.65,.54-3.45,.81-5.41,.81"/></g><path class="cls-2" d="M130.5,95.59l-10.64-23.42-10.7,23.42h21.34Zm-12.02-26.71h2.89l18.85,40.76h-3.3l-5.15-11.33h-23.88l-5.14,11.33h-3.13l18.86-40.76Z"/><polygon class="cls-2" points="148.2 69.16 151.03 69.16 178.97 104.38 178.97 69.16 181.86 69.16 181.86 109.64 179.6 109.64 151.09 73.67 151.09 109.64 148.2 109.64 148.2 69.16"/><g><path class="cls-2" d="M201.34,110.22c-3.16,0-5.8-.6-7.95-1.79-2.14-1.19-3.9-2.62-5.29-4.28l5.61-6.24c1.15,1.27,2.32,2.26,3.49,2.97,1.18,.72,2.49,1.07,3.91,1.07,1.69,0,3.02-.53,3.99-1.59,.96-1.06,1.45-2.77,1.45-5.12v-26.08h9.13v26.49c0,2.43-.32,4.52-.98,6.3-.66,1.77-1.6,3.27-2.83,4.51-1.24,1.23-2.75,2.17-4.54,2.8-1.8,.64-3.78,.96-5.98,.96"/><path class="cls-2" d="M243.96,102.13c1.77,0,3.41-.33,4.91-.99,1.51-.66,2.79-1.56,3.85-2.72,1.07-1.16,1.9-2.49,2.49-4.02,.6-1.52,.9-3.14,.9-4.88v-.12c0-1.73-.3-3.37-.9-4.91-.59-1.55-1.44-2.89-2.53-4.05-1.1-1.15-2.41-2.07-3.91-2.74-1.5-.67-3.14-1.02-4.91-1.02s-3.46,.34-4.94,.99c-1.48,.65-2.76,1.56-3.81,2.72-1.06,1.16-1.88,2.5-2.49,4.02-.6,1.52-.9,3.15-.9,4.88v.12c0,1.73,.3,3.37,.9,4.91,.61,1.55,1.45,2.9,2.55,4.05,1.1,1.16,2.38,2.07,3.88,2.75,1.48,.67,3.13,1.02,4.94,1.02m-.12,8.2c-3.12,0-5.99-.55-8.62-1.65-2.62-1.1-4.88-2.58-6.8-4.45-1.9-1.87-3.39-4.06-4.45-6.58-1.06-2.53-1.59-5.24-1.59-8.13v-.12c0-2.89,.54-5.6,1.62-8.12,1.08-2.52,2.58-4.74,4.5-6.65,1.9-1.9,4.18-3.41,6.82-4.51,2.64-1.1,5.51-1.65,8.64-1.65s6,.55,8.62,1.65c2.61,1.09,4.88,2.58,6.78,4.45,1.91,1.87,3.39,4.07,4.45,6.59,1.06,2.53,1.59,5.23,1.59,8.12v.12c0,2.89-.54,5.6-1.62,8.13-1.07,2.53-2.56,4.74-4.48,6.65-1.9,1.9-4.18,3.41-6.82,4.51-2.63,1.1-5.53,1.65-8.65,1.65"/><path class="cls-2" d="M290.68,88.82c2.2,0,3.89-.52,5.05-1.56,1.18-1.04,1.77-2.43,1.77-4.16v-.12c0-1.92-.62-3.37-1.85-4.33-1.23-.96-2.95-1.45-5.14-1.45h-8.85v11.62h9.03Zm-17.93-19.66h18.51c5.12,0,9.06,1.37,11.79,4.1,2.31,2.32,3.47,5.4,3.47,9.26v.1c0,3.28-.8,5.95-2.4,8.01-1.6,2.07-3.69,3.57-6.27,4.55l9.89,14.45h-10.42l-8.66-12.96h-7.01v12.96h-8.9v-40.48Z"/><path class="cls-2" d="M333.47,110.33c-3.17,0-6.05-.51-8.64-1.56-2.61-1.04-4.85-2.48-6.71-4.34-1.88-1.85-3.33-4.05-4.38-6.59-1.03-2.54-1.56-5.32-1.56-8.33v-.12c0-2.89,.53-5.6,1.6-8.12,1.06-2.52,2.52-4.74,4.43-6.65,1.88-1.9,4.12-3.41,6.7-4.51,2.58-1.1,5.42-1.65,8.49-1.65,1.82,0,3.47,.13,4.95,.38,1.49,.25,2.87,.61,4.14,1.07,1.28,.46,2.47,1.04,3.59,1.73,1.12,.7,2.19,1.48,3.24,2.37l-5.61,6.77c-.77-.66-1.54-1.23-2.31-1.74-.78-.5-1.57-.92-2.4-1.27-.83-.35-1.73-.62-2.68-.81-.97-.2-2.02-.3-3.18-.3-1.62,0-3.13,.34-4.54,1.02-1.41,.68-2.65,1.59-3.7,2.73-1.06,1.14-1.89,2.47-2.49,4-.59,1.53-.9,3.16-.9,4.9v.11c0,1.86,.3,3.57,.9,5.13,.6,1.56,1.45,2.93,2.55,4.08,1.1,1.16,2.39,2.06,3.88,2.69,1.48,.64,3.13,.96,4.94,.96,3.31,0,6.11-.81,8.38-2.45v-5.82h-8.96v-7.69h17.58v17.58c-2.09,1.78-4.56,3.29-7.43,4.54-2.87,1.25-6.16,1.88-9.85,1.88"/></g><polygon class="cls-2" points="358.73 69.16 389.21 69.16 389.21 77.08 367.53 77.08 367.53 85.3 386.6 85.3 386.6 93.22 367.53 93.22 367.53 101.73 389.5 101.73 389.5 109.64 358.73 109.64 358.73 69.16"/><g><path class="cls-5" d="M521.41,114.1s.56,0,1.19,.05c-3.1-1.41-5.62-2.98-7.98-4.59-2.55,.02-5.32-.09-7.87-.08-1.29,0-6.39-1.71-7.87-2.25-4.06-1.03,2.24,2.01,1.88,2.36-1.29-.35-7.2-2.12-11.46-3.37,.03,1.2,.08,2.41,.12,3.57,.09,2.34,.17,4.7,.25,7.07,.51,1.87,1.01,3.75,1.48,5.63,1.98,7.25,3.37,12.76,4.73,19.51,.51,1.92,1.05,3.78,1.77,5.45,1.04,2.45,2.57,3.85,3.28,5.48-2.29-9.27-4.11-17.64-5.93-27.19-1-6.25-2.06-12.21-3.2-18.13l3.07,1.33c3.9,1.67,7.92,3.29,12.05,4.86,1.54,.73,3.34,.39,4.67,.54,4.04,.51,8.62,1.38,12.17,1.49-.94-.68-1.4-1.04-2.35-1.72"/><path class="cls-4" d="M482.02,108.03c-.16-1.86-1.47-3.09-1.86-5.06,.06-1.92-.55-2.83,.67-5.74h-.11c-.8,.24-1.43,.41-2.06,1.53-.57,1.39-.29,1.71-.34,1.76,.05,.48,.1,.78,.16,.99,.11,.54,.27,.93,.39,1.43,.31,.95,.64,1.93,1,3.08,.71,2.2,1.58,4.87,2.45,7.99,.25,.85,.55,1.68,.89,2.51-.59-7.66-1.35-10.77-1.2-8.47"/><path class="cls-4" d="M500.65,100.73c-.22-.08-.43-.17-.65-.26,1.03,.97,4.83,2.98,5.29,3.72-2.84-1.1-6.08-1.86-9.11-1.59-1,.07-2.26,.8-3.47,.48-1.06-.15-2.26-.3-3.44-.45-.02,1.14,0,2.35,.03,3.58,4.26,1.25,10.16,3.03,11.46,3.37,.36-.35-5.93-3.39-1.88-2.36,1.48,.54,6.58,2.25,7.87,2.25,2.55,0,5.32,.1,7.87,.08,1.29,0,2.53-.05,3.65-.16-.92-.56-1.41-.84-2.38-1.44,0,0,.59-.02,1.13-.07-4.8-1.61-8.27-3.75-11.96-5.74-1.42-.51-2.87-1.03-3.88-1.4-.22-.02-.41-.02-.54-.02"/><path class="cls-4" d="M489.68,116.85c.15,4.15,.27,8.38,.34,12.77,1.72,4.5,1.98,7.4,3.96,11.38,.33,1.94,2.42,2.99,2.79,5.55-.29-1.6-.59-3.11-.88-4.56-1.35-6.76-2.75-12.26-4.73-19.51-.47-1.88-.97-3.76-1.48-5.63"/><path class="cls-1" d="M489.68,116.85c-.08-2.37-.17-4.73-.25-7.07-.04-1.16-.09-2.37-.12-3.57-.03-1.23-.05-2.44-.03-3.58,1.18,.14,2.38,.29,3.44,.45,1.2,.32,2.47-.41,3.47-.48,3.02-.27,6.27,.49,9.11,1.59-.45-.74-4.26-2.74-5.29-3.72-.08-.08-.15-.16-.2-.23,0,0,.55,.19,1.38,.5,1.01,.37,2.45,.89,3.88,1.4,2.26,.82,4.45,1.61,4.68,1.68-3.89-3.63-12.57-7.46-16.83-9.14-.44-.22-1.91-.22-2.35-.1-.71-.2-1.53-.45-2.19-.72l-.93-.42c-.44-.06,.52-.15-1.82-.29-1.89,.09-2.84,.92-3.78,1.98-.44,.8-.76,1.49-1.01,2.09-1.22,2.91-.61,3.83-.67,5.74,.4,1.97,1.7,3.2,1.86,5.06-.15-2.3,.61,.82,1.2,8.47,.12,1.53,.23,3.22,.32,5.11,.17,4.54,2.23,9.13,3.42,12.97,1.39,4.23,1.47,6.98,2.32,10.95,1.48-.88,1.25,2.96,1.72,4.32,.46-8.09-.67-11.34-.97-19.36,0-.29-.01-.58-.02-.87-.07-4.39-.19-8.62-.34-12.77"/><path class="cls-5" d="M486.23,64.48c-2.19,3.56,2.63-1.5,2.84-1.07-.73,1.09-4.23,6.19-6.74,9.85,1.14,.34,2.32,.67,3.46,1.01,2.27,.63,4.55,1.27,6.85,1.93,1.91,.09,3.83,.2,5.74,.33,7.62,.36,13.33,.73,20.27,1.56,1.9,.1,3.75,.14,5.48-.02,2.66-.26,4.48-1.31,6.22-1.46-9.51-.67-18.05-1.52-27.68-2.75-6.29-.97-12.27-1.8-18.24-2.54l2.22-2.52c2.79-3.21,5.56-6.51,8.34-9.98,1.19-1.22,1.38-3.03,1.95-4.26,1.76-3.7,3.96-7.75,5.2-11.11-.96,.67-1.46,1.01-2.41,1.72,0,0,.2-.57,.42-1.14-2.29,2.54-4.57,4.44-6.82,6.18-.78,2.44-1.73,5.04-2.49,7.48-.41,1.2-3.63,5.52-4.61,6.79"/><path class="cls-4" d="M481.81,80.76c-1.79-.42-3.39,.4-5.4,.19-1.8-.64-2.86-.36-5.24-2.4-.01,.05-.03,.09-.04,.14,.01,.79-.04,1.46,.83,2.39,1.14,.96,1.51,.82,1.56,.86,.48,.13,.74,.11,.97,.15,.58,.07,1.01,.06,1.5,.07,1,0,2.03,.03,3.22,.03,2.32,0,5.11,0,8.37,.09,.87,.04,1.76,0,2.64-.05-7.46-1.81-10.65-2.02-8.4-1.47"/><path class="cls-4" d="M480.63,60.77c-.14,.17-.28,.33-.42,.5,1.27-.7,4.3-3.65,5.14-3.84-1.92,2.37-3.68,5.23-4.35,8.18-.22,.99,.08,2.4-.56,3.47-.52,.97-1.02,2.03-1.53,3.13,1.08,.37,2.23,.72,3.42,1.07,2.51-3.67,6.02-8.76,6.75-9.85-.21-.43-5.03,4.63-2.84,1.07,.98-1.27,4.2-5.59,4.61-6.79,.77-2.44,1.71-5.04,2.49-7.48,.39-1.23,.75-2.42,1.01-3.53-.86,.72-1.25,1.09-2.12,1.83,0,0,.15-.56,.28-1.09-2.99,4.09-6.13,6.69-9.18,9.57-.9,1.16-1.83,2.35-2.5,3.2-.09,.23-.17,.43-.2,.58"/><path class="cls-4" d="M492.63,76.21c3.99,1.14,8.06,2.33,12.27,3.61,4.75-.24,7.6,.42,11.95-.25,1.93,.3,3.59-1.37,6.13-.92-1.51-.2-2.94-.39-4.33-.55-6.94-.83-12.65-1.2-20.27-1.56-1.91-.14-3.83-.24-5.74-.33"/><path class="cls-1" d="M504.9,79.82c-4.2-1.28-8.27-2.47-12.27-3.61-2.3-.66-4.58-1.3-6.85-1.93-1.14-.33-2.31-.66-3.46-1-1.19-.35-2.34-.7-3.42-1.07,.51-1.09,1.01-2.16,1.53-3.13,.64-1.07,.34-2.48,.56-3.47,.67-2.95,2.42-5.81,4.35-8.18-.84,.19-3.87,3.14-5.14,3.84-.12,.07-.24,.12-.33,.14,0,0,.38-.48,.95-1.22,.67-.85,1.6-2.04,2.5-3.2,1.48-1.9,2.9-3.73,3.04-3.92-4.62,2.59-10.97,9.68-13.87,13.19-.33,.35-.8,1.73-.82,2.2-.44,.65-.92,1.34-1.34,1.87l-.7,.76c-.23,.43,0-.55-.86,1.65-.48,1.8,0,2.97,.7,4.18,.64,.66,1.19,1.19,1.69,1.62,2.38,2.04,3.44,1.76,5.24,2.4,2.02,.21,3.61-.61,5.4-.19-2.25-.56,.94-.34,8.4,1.47,1.49,.36,3.15,.78,4.98,1.28,4.38,1.23,9.37,.71,13.4,.74,4.47-.02,7.1,.77,11.13,1.19-.37-1.68,3.21-.27,4.66-.33-7.52-2.91-10.99-2.83-18.72-5.06-.25-.08-.49-.15-.75-.23"/><path class="cls-5" d="M464.69,133.42c-.31-4.17-1.21,2.74-1.64,2.55-.07-1.34-.22-7.5-.35-11.93-1.12,.39-2.25,.79-3.37,1.2-2.22,.81-4.46,1.62-6.71,2.44-1.59,1.04-3.18,2.08-4.79,3.07-6.33,4.16-11.13,7.19-17.09,10.55-1.68,1.08-3.29,2.18-4.65,3.4-2.04,1.76-2.89,3.66-4.22,4.78,8.14-5.01,15.51-9.32,24.01-14.02,5.63-2.88,10.98-5.74,16.24-8.65l-.32,3.34c-.33,4.2-.63,8.52-.87,12.99-.24,1.67,.67,3.24,.95,4.57,.75,4.02,1.34,8.6,2.32,12.06,.36-1.13,.56-1.68,.93-2.79,0,0,.17,.56,.33,1.13,.35-3.41,1.08-6.28,1.87-9.01-.79-2.44-1.55-5.1-2.37-7.52-.38-1.22-.32-6.58-.27-8.18"/><path class="cls-4" d="M458.71,117.64c1.73-.74,2.52-2.33,4.27-3.31,1.84-.54,2.52-1.41,5.64-1.17-.01-.04-.02-.08-.04-.12-.48-.65-.83-1.19-2.09-1.44-1.5-.15-1.66,.23-1.76,.2-.46,.2-.68,.34-.94,.45-.43,.3-.76,.57-1.19,.85-.8,.54-1.65,1.18-2.61,1.87-1.9,1.35-4.14,2.99-6.83,4.81-.74,.5-1.43,1.05-2.13,1.62,7.11-2.92,9.81-4.64,7.67-3.76"/><path class="cls-4" d="M471.42,133.14c.01-.24,.03-.48,.05-.72-.62,1.3-1.34,5.52-1.9,6.19,.17-3.03-.11-6.41-1.31-9.16-.38-.96-1.47-1.89-1.55-3.17-.17-1.03-.41-2.21-.62-3.36-1.09,.34-2.23,.72-3.38,1.12,.12,4.43,.27,10.59,.35,11.93,.43,.19,1.33-6.72,1.64-2.55-.05,1.6-.1,6.95,.27,8.18,.82,2.41,1.58,5.08,2.37,7.52,.4,1.24,.82,2.42,1.26,3.47,.23-1.1,.38-1.64,.65-2.72,0,0,.22,.53,.41,1.04,.04-5.05,1.01-9,1.78-13.1,.05-1.5,.1-3.04,.14-4.13-.05-.22-.11-.4-.16-.53"/><path class="cls-4" d="M452.63,127.68c-3.91,1.43-7.89,2.86-12.04,4.29-3.73,2.97-6.4,4.11-9.54,7.21-1.74,.92-2.1,3.22-4.39,4.38,1.43-.78,2.79-1.53,4.09-2.26,5.96-3.36,10.76-6.39,17.09-10.55,1.61-1,3.2-2.03,4.79-3.07"/><path class="cls-1" d="M474.12,121.64c0-.79-.07-1.64,0-2.37l.12-1.01c-.07-.43,.32,.45-.29-1.8-.63-1.79-1.74-2.44-3.04-3.01-.9-.16-1.65-.25-2.3-.3-3.13-.24-3.81,.63-5.64,1.17-1.76,.97-2.55,2.57-4.27,3.31,2.13-.88-.56,.83-7.67,3.76-1.41,.59-3,1.21-4.77,1.89-4.27,1.59-8,4.92-11.23,7.26-3.62,2.64-6.23,3.58-9.75,5.57,1.31,1.14-2.42,2.12-3.56,3.03,7.83-2.11,10.57-4.19,18.11-6.91,.25-.09,.49-.17,.75-.26,4.15-1.43,8.13-2.87,12.04-4.29,2.25-.82,4.49-1.64,6.71-2.45,1.12-.41,2.25-.82,3.37-1.2,1.15-.4,2.29-.78,3.38-1.12,.22,1.14,.45,2.33,.62,3.36,.08,1.28,1.16,2.21,1.55,3.17,1.2,2.76,1.48,6.14,1.31,9.17,.56-.67,1.28-4.88,1.9-6.19,.06-.11,.11-.22,.17-.28,0,0-.02,.61-.06,1.53-.04,1.09-.09,2.63-.14,4.13-.09,2.39-.16,4.68-.17,4.93,2.26-4.84,3.23-14.28,3.49-18.84,.07-.5-.4-1.88-.64-2.25"/><path class="cls-5" d="M429.3,109.21c3.9-1.57-2.98-.31-2.9-.78,1.22-.49,7.05-2.54,11.24-4.03-.73-.94-1.48-1.89-2.21-2.81-1.48-1.88-2.97-3.78-4.47-5.69-1.47-1.18-2.92-2.37-4.36-3.57-5.89-4.73-10.26-8.36-15.33-13.03-1.53-1.25-3.05-2.43-4.59-3.36-2.31-1.36-4.38-1.58-5.87-2.5,7.27,6.17,13.69,11.87,20.73,18.49,4.53,4.48,8.9,8.68,13.27,12.79l-3.28,.73c-4.13,.95-8.33,1.98-12.62,3.18-1.68,.26-2.93,1.64-4.09,2.31-3.57,1.95-7.75,3.93-10.73,5.93,1.19,0,1.75,.03,2.96,.04,0,0-.5,.32-.98,.62,3.33-.69,6.29-.89,9.13-.97,2.08-1.52,4.38-3.06,6.43-4.56,1.03-.74,6.14-2.37,7.68-2.8"/><path class="cls-4" d="M431.68,115.52c.22-.06,.46-.11,.69-.17-1.4-.2-5.69,.41-6.47,.1,2.93-.81,6.03-2.08,8.32-4.08,.74-.65,1.32-2,2.5-2.46,.95-.51,2.02-1.08,3.07-1.63-.65-.93-1.39-1.91-2.15-2.88-4.19,1.49-10.01,3.54-11.24,4.03-.08,.47,6.79-.79,2.9,.78-1.53,.43-6.64,2.07-7.68,2.8-2.05,1.5-4.35,3.04-6.43,4.56-1.05,.77-2.05,1.53-2.93,2.29,1.13-.1,1.69-.16,2.81-.25,0,0-.45,.38-.83,.74,4.78-1.55,8.82-1.83,12.95-2.37,1.47-.42,2.97-.85,4.03-1.15,.19-.12,.36-.23,.46-.31"/><path class="cls-4" d="M442.48,98.64c1.23,1.4,2.99,1.68,4.47,2.99,1.08,1.61,2.12,1.99,2.84,5.05,.04-.02,.07-.05,.11-.07,.48-.67,.89-1.17,.73-2.42-.35-1.48-.75-1.54-.75-1.62-.3-.38-.54-.55-.71-.72-.43-.37-.77-.59-1.18-.91-.76-.6-1.61-1.24-2.58-1.89-1.87-1.38-4.15-3.04-6.7-5.03-.7-.55-1.45-1.05-2.22-1.54,4.99,5.85,7.49,7.94,5.99,6.17"/><path class="cls-4" d="M430.96,95.9c-2.55-3.26-5.12-6.6-7.76-10.09-3.98-2.59-5.88-4.79-9.76-6.8-1.43-1.4-3.75-1.02-5.55-2.86,1.17,1.12,2.28,2.15,3.37,3.15,5.07,4.67,9.45,8.3,15.33,13.03,1.43,1.2,2.89,2.39,4.36,3.57"/><path class="cls-1" d="M446.95,101.64c-1.48-1.32-3.24-1.6-4.47-2.99,1.5,1.77-1-.31-5.99-6.17-.99-1.16-2.07-2.46-3.25-3.93-2.8-3.58-7.13-6.07-10.38-8.48-3.59-2.6-5.28-4.77-8.3-7.5-.67,1.59-2.76-1.67-3.96-2.47,4.42,6.78,7.23,8.78,12.17,15.13,.15,.2,.29,.39,.44,.58,2.63,3.49,5.21,6.83,7.76,10.09,1.5,1.92,2.99,3.82,4.47,5.69,.73,.92,1.48,1.87,2.21,2.81,.75,.97,1.49,1.95,2.15,2.88-1.05,.56-2.12,1.12-3.07,1.63-1.18,.46-1.76,1.81-2.5,2.46-2.29,1.99-5.39,3.27-8.32,4.08,.79,.31,5.07-.3,6.47-.1,.12,.02,.22,.04,.29,.07,0,0-.57,.16-1.43,.41-1.06,.3-2.57,.73-4.03,1.15-2.29,.65-4.48,1.29-4.71,1.36,5.29,.64,14.57-1.38,19.02-2.49,.47-.1,1.67-.95,1.97-1.29,.71-.28,1.51-.58,2.18-.73l1.01-.19c.36-.26-.32,.43,1.63-.83,1.5-1.17,1.79-2.42,1.92-3.83-.12-.91-.26-1.65-.41-2.29-.72-3.06-1.76-3.44-2.84-5.05"/><path class="cls-5" d="M439.19,64.79c2.71,3.19-.62-2.94-.15-3.02,.85,1.03,4.6,5.95,7.3,9.47,.67-.99,1.35-2,2.02-2.98,1.3-1.95,2.62-3.91,3.94-5.89,.69-1.8,1.38-3.6,2.11-5.38,2.69-7.11,4.8-12.4,7.69-18.71,.7-1.8,1.32-3.59,1.71-5.31,.59-2.62,.17-4.65,.59-6.34-3.65,8.82-7.08,16.65-11.18,25.43-2.87,5.68-5.51,11.12-8.07,16.55l-1.69-2.87c-2.2-3.62-4.5-7.28-6.94-11.02-.8-1.49-2.46-2.25-3.45-3.15-2.97-2.8-6.13-6.16-8.98-8.39,.38,1.12,.53,1.7,.91,2.81,0,0-.46-.35-.95-.72,1.69,2.96,2.81,5.7,3.78,8.37,2.08,1.51,4.24,3.22,6.31,4.72,1.03,.74,4.17,5.12,5.05,6.42"/><path class="cls-4" d="M453.28,74.08c-.95,1.56-.66,3.32-1.45,5.15-1.19,1.54-1.23,2.61-3.91,4.26,.04,.03,.08,.06,.12,.09,.74,.25,1.36,.51,2.51-.03,1.28-.81,1.22-1.2,1.32-1.21,.26-.43,.36-.7,.44-.91,.22-.52,.34-.9,.5-1.39,.35-.92,.67-1.95,1.05-3.04,.71-2.23,1.59-4.87,2.67-7.95,.31-.83,.55-1.7,.77-2.57-4.03,6.56-5.23,9.56-4.02,7.61"/><path class="cls-4" d="M433.93,69.01c.13,.19,.25,.4,.37,.59-.25-1.39-2.14-5.27-2.08-6.15,1.66,2.57,3.83,5.15,6.45,6.7,.85,.51,2.29,.65,3.07,1.62,.78,.75,1.67,1.59,2.53,2.41,.68-.91,1.38-1.91,2.08-2.93-2.7-3.52-6.45-8.45-7.3-9.47-.48,.08,2.86,6.21,.15,3.02-.88-1.3-4.02-5.69-5.05-6.42-2.07-1.5-4.23-3.22-6.31-4.72-1.05-.76-2.08-1.47-3.05-2.07,.41,1.04,.65,1.58,1.06,2.58,0,0-.46-.29-.96-.57,2.93,4.05,4.46,7.8,6.24,11.55,.87,1.28,1.76,2.61,2.39,3.53,.17,.14,.32,.27,.43,.34"/><path class="cls-4" d="M452.31,62.38c2.32-3.45,4.7-6.95,7.23-10.56,1.26-4.6,2.75-7.1,3.49-11.46,.86-1.74-.23-3.84,.98-6.12-.67,1.42-1.3,2.76-1.9,4.06-2.89,6.31-4.99,11.6-7.69,18.71-.72,1.78-1.42,3.58-2.11,5.38"/><path class="cls-1" d="M470.61,34.93c-5.15,6.3-6.11,9.59-10.62,16.22-.15,.22-.3,.44-.46,.66-2.52,3.61-4.91,7.12-7.23,10.56-1.33,1.98-2.65,3.95-3.94,5.89-.67,.98-1.35,1.99-2.02,2.98-.7,1.02-1.4,2.02-2.08,2.93-.86-.82-1.75-1.66-2.53-2.41-.78-.97-2.22-1.11-3.07-1.62-2.62-1.55-4.79-4.13-6.45-6.69-.06,.88,1.83,4.76,2.08,6.15,.02,.12,.04,.23,.03,.31,0,0-.33-.49-.83-1.24-.63-.93-1.52-2.25-2.39-3.53-1.32-1.96-2.57-3.81-2.7-4.01,1,5.23,5.78,13.45,8.22,17.31,.25,.46,1.42,1.27,1.88,1.47,.41,.59,.96,1.27,1.33,1.88l.48,.89c.38,.29-.5-.21,1.32,1.32,1.57,1.01,2.86,.95,4.22,.61,.82-.4,1.5-.77,2.05-1.12,2.68-1.65,2.72-2.72,3.91-4.26,.8-1.82,.51-3.59,1.45-5.15-1.21,1.95-.01-1.05,4.02-7.61,.8-1.3,1.71-2.74,2.73-4.32,2.52-3.76,3.59-8.68,4.82-12.48,1.4-4.24,2.97-6.53,4.64-10.22-1.76-.14,.71-3.13,1.13-4.53"/><path class="cls-3" d="M154.16,54.48c-1.8,0-3.25-.52-4.34-1.55-1.08-1.03-1.62-2.44-1.62-4.23,0-.43,.05-.9,.15-1.41,.1-.5,.21-1,.33-1.48l2.78-10.4h2.78l-2.85,10.56c-.07,.31-.13,.66-.18,1.05-.05,.39-.07,.73-.07,1.05,0,1.23,.37,2.18,1.1,2.86,.73,.69,1.75,1.03,3.05,1.03,.72,0,1.44-.15,2.15-.45,.71-.3,1.37-.72,1.97-1.24,.6-.53,1.13-1.17,1.59-1.91,.46-.74,.81-1.56,1.05-2.45l2.82-10.49h2.78l-4.99,18.68h-2.78s.83-3.03,.83-3.03c-.84,.96-1.79,1.78-2.84,2.44-1.05,.66-2.28,.99-3.7,.99"/><path class="cls-3" d="M177.46,35.41h2.78s-.79,3.04-.79,3.04c.84-.96,1.78-1.78,2.82-2.44,1.03-.66,2.26-.99,3.68-.99,1.81,0,3.26,.52,4.35,1.55,1.09,1.04,1.64,2.44,1.64,4.23,0,.43-.05,.9-.15,1.41-.1,.51-.21,1-.33,1.48l-2.77,10.4h-2.78l2.82-10.56c.1-.31,.17-.66,.22-1.05,.05-.38,.07-.73,.07-1.04,0-1.23-.37-2.18-1.12-2.86-.75-.69-1.77-1.03-3.07-1.03-.72,0-1.43,.15-2.13,.45-.7,.3-1.35,.72-1.95,1.25-.6,.53-1.14,1.16-1.61,1.89-.47,.73-.82,1.54-1.07,2.43l-2.82,10.53h-2.78l4.98-18.68Z"/></g><path class="cls-3" d="M205.24,28.26h3.18l-.83,3.07h-3.18l.83-3.07Zm-1.73,7.15h2.78l-5.02,18.68h-2.78l5.02-18.68Z"/><polygon class="cls-3" points="213.95 35.41 216.87 35.41 218.97 50.91 229.3 35.41 232.44 35.41 219.4 54.23 216.94 54.23 213.95 35.41"/><g><path class="cls-3" d="M251.08,43.57c.05-.19,.08-.4,.11-.61,.02-.22,.04-.48,.04-.8,0-.65-.09-1.26-.27-1.84-.18-.58-.46-1.09-.85-1.52-.39-.43-.87-.78-1.46-1.05-.59-.26-1.28-.4-2.08-.4-.92,0-1.78,.16-2.58,.49-.81,.32-1.53,.77-2.17,1.34-.64,.57-1.19,1.22-1.66,1.97-.47,.75-.84,1.55-1.1,2.42h12.03Zm-12.43,2.24c-.02,.12-.04,.23-.04,.32v.33c0,1.71,.51,3.08,1.52,4.1,1.01,1.03,2.38,1.54,4.12,1.54,1.2,0,2.25-.19,3.14-.58,.89-.38,1.76-.93,2.6-1.62l1.44,1.84c-.92,.77-1.96,1.43-3.13,1.97-1.17,.54-2.57,.81-4.21,.81-1.23,0-2.35-.19-3.38-.58-1.03-.39-1.9-.93-2.62-1.62-.72-.7-1.28-1.54-1.68-2.51-.4-.98-.6-2.05-.6-3.23,0-1.42,.27-2.82,.81-4.21,.54-1.38,1.3-2.62,2.28-3.7,.98-1.08,2.13-1.96,3.45-2.64,1.32-.67,2.77-1.01,4.33-1.01,1.18,0,2.22,.19,3.12,.58,.9,.39,1.65,.91,2.26,1.55,.6,.65,1.06,1.41,1.37,2.28,.31,.87,.47,1.78,.47,2.75,0,.63-.06,1.25-.18,1.86-.12,.61-.29,1.21-.51,1.79h-14.59Z"/><path class="cls-3" d="M264.59,35.42h2.78l-1.26,4.87c.58-.82,1.19-1.56,1.82-2.22,.64-.66,1.33-1.22,2.08-1.68,.74-.46,1.53-.8,2.35-1.03,.82-.23,1.7-.32,2.64-.27l-.79,3h-.18c-1.01,0-2.02,.19-3.02,.56-1,.37-1.93,.92-2.78,1.64-.85,.72-1.62,1.62-2.29,2.71-.68,1.08-1.19,2.32-1.55,3.72l-1.99,7.36h-2.78l4.98-18.66Z"/><path class="cls-3" d="M284.96,54.48c-1.44,0-2.88-.27-4.3-.81-1.42-.54-2.67-1.36-3.76-2.44l1.81-1.81c1.01,.99,2.07,1.69,3.16,2.11,1.09,.42,2.21,.63,3.34,.63,.53,0,1.04-.07,1.54-.22,.49-.14,.93-.36,1.32-.63,.39-.28,.69-.6,.92-.98,.23-.37,.34-.8,.34-1.28,0-.6-.25-1.15-.76-1.64-.51-.49-1.43-1-2.78-1.53-1.68-.65-2.99-1.34-3.9-2.08-.92-.73-1.37-1.75-1.37-3.05,0-.79,.16-1.54,.49-2.24,.32-.7,.79-1.3,1.41-1.82,.62-.52,1.36-.93,2.24-1.23,.88-.3,1.86-.45,2.94-.45,1.37,0,2.67,.26,3.9,.78,1.23,.52,2.23,1.11,3,1.79l-1.62,1.91c-.77-.63-1.63-1.14-2.58-1.55-.95-.41-1.93-.61-2.94-.61-1.32,0-2.33,.3-3.02,.9-.69,.6-1.03,1.29-1.03,2.06,0,.31,.05,.6,.16,.85,.11,.25,.3,.51,.58,.76,.28,.25,.66,.51,1.14,.76,.48,.25,1.1,.52,1.84,.81,1.68,.7,2.96,1.43,3.81,2.19,.85,.76,1.28,1.74,1.28,2.94,0,.87-.19,1.66-.56,2.38-.37,.72-.89,1.34-1.54,1.86-.65,.52-1.41,.92-2.28,1.21-.87,.29-1.79,.43-2.78,.43"/></g><path class="cls-3" d="M306.27,28.26h3.18l-.83,3.07h-3.18l.83-3.07Zm-1.73,7.15h2.78l-5.02,18.68h-2.78l5.02-18.68Z"/><g><path class="cls-3" d="M321.81,52.06c1.03,0,2.05-.25,3.05-.74,1-.5,1.89-1.14,2.66-1.95,.77-.81,1.4-1.74,1.88-2.8,.48-1.06,.72-2.17,.72-3.32,0-.82-.14-1.58-.42-2.28-.28-.7-.67-1.31-1.18-1.82-.5-.52-1.11-.92-1.82-1.23-.71-.3-1.5-.45-2.37-.45-1.11,0-2.14,.24-3.09,.72-.95,.48-1.78,1.13-2.47,1.93-.7,.81-1.25,1.75-1.64,2.84-.4,1.08-.6,2.22-.6,3.39,0,.87,.13,1.65,.38,2.35,.25,.7,.61,1.3,1.08,1.8,.47,.51,1.03,.89,1.68,1.16,.65,.27,1.36,.4,2.13,.4m-.8,2.46c-1.06,0-2.04-.19-2.94-.58-.9-.39-1.69-.92-2.35-1.61-.66-.69-1.18-1.51-1.55-2.49-.37-.98-.56-2.05-.56-3.23,0-1.66,.29-3.2,.87-4.61,.58-1.41,1.36-2.63,2.33-3.67,.98-1.03,2.09-1.85,3.34-2.44,1.25-.59,2.57-.89,3.94-.89,.96,0,1.82,.12,2.56,.38,.74,.25,1.41,.59,1.99,1.01,.58,.42,1.07,.91,1.46,1.48,.4,.57,.73,1.15,.99,1.75l3.18-11.92h2.78l-7.04,26.37h-2.78l.83-3.18c-.89,1.01-1.91,1.87-3.05,2.56-1.14,.7-2.47,1.05-3.99,1.05"/><path class="cls-3" d="M346.69,52.24c.8,0,1.58-.13,2.35-.4,.77-.26,1.49-.64,2.15-1.13,.66-.49,1.24-1.07,1.73-1.74,.49-.67,.85-1.41,1.07-2.23l.36-1.29c-.82-.22-1.74-.41-2.76-.58-1.03-.17-2.11-.25-3.27-.25-1.66,0-3,.4-4.03,1.21-1.03,.8-1.54,1.85-1.54,3.15,0,1.01,.35,1.8,1.05,2.39s1.66,.88,2.89,.88m-.9,2.24c-.8,0-1.55-.12-2.26-.34-.71-.23-1.34-.56-1.88-.99-.54-.43-.97-.97-1.28-1.61-.31-.64-.47-1.38-.47-2.22,0-1.04,.21-1.97,.61-2.82,.41-.84,.99-1.55,1.73-2.13,.75-.58,1.63-1.02,2.64-1.34,1.01-.31,2.12-.47,3.32-.47s2.44,.1,3.57,.31c1.13,.2,2.14,.44,3.04,.7l.14-.47c.05-.27,.1-.55,.14-.85,.05-.3,.07-.58,.07-.85,0-1.2-.42-2.13-1.25-2.78-.83-.65-2.09-.98-3.77-.98-1.01,0-1.93,.08-2.76,.25-.83,.17-1.67,.41-2.51,.72l-.51-2.35c.94-.36,1.9-.64,2.89-.85,.99-.21,2.1-.31,3.33-.31,2.36,0,4.17,.52,5.43,1.55,1.27,1.03,1.9,2.46,1.9,4.26,0,.39-.03,.8-.09,1.25-.06,.45-.15,.88-.27,1.32l-2.82,10.58h-2.75s.76-2.93,.76-2.93c-.84,1.01-1.84,1.82-3,2.42-1.16,.6-2.48,.9-3.97,.9"/><path class="cls-3" d="M373.64,52.06c1.03,0,2.05-.25,3.05-.74,1-.5,1.89-1.14,2.66-1.95,.77-.81,1.4-1.74,1.88-2.8,.48-1.06,.72-2.17,.72-3.32,0-.82-.14-1.58-.41-2.28-.28-.7-.67-1.31-1.18-1.82-.5-.52-1.11-.92-1.82-1.23-.71-.3-1.5-.45-2.37-.45-1.11,0-2.14,.24-3.09,.72-.95,.48-1.78,1.13-2.47,1.93-.7,.81-1.25,1.75-1.64,2.84-.4,1.08-.6,2.22-.6,3.39,0,.87,.13,1.65,.38,2.35,.25,.7,.61,1.3,1.08,1.8,.47,.51,1.03,.89,1.68,1.16,.65,.27,1.36,.4,2.13,.4m-.8,2.46c-1.06,0-2.04-.19-2.94-.58-.9-.39-1.69-.92-2.35-1.61-.66-.69-1.18-1.51-1.55-2.49-.37-.98-.56-2.05-.56-3.23,0-1.66,.29-3.2,.87-4.61,.58-1.41,1.36-2.63,2.33-3.67,.98-1.03,2.09-1.85,3.34-2.44,1.25-.59,2.56-.89,3.94-.89,.96,0,1.82,.12,2.57,.38,.74,.25,1.41,.59,1.99,1.01,.58,.42,1.07,.91,1.46,1.48,.4,.57,.73,1.15,.99,1.75l3.18-11.92h2.78l-7.04,26.37h-2.78l.83-3.18c-.89,1.01-1.91,1.87-3.05,2.56-1.14,.7-2.47,1.05-3.99,1.05"/></g></svg>