<?xml version="1.0" encoding="utf-8"?>
<!-- Generator: Adobe Illustrator 24.2.3, SVG Export Plug-In . SVG Version: 6.00 Build 0)  -->
<svg version="1.1" id="Flag" xmlns="http://www.w3.org/2000/svg" xmlns:xlink="http://www.w3.org/1999/xlink" x="0px" y="0px"
	 viewBox="0 0 60 40" style="enable-background:new 0 0 60 40;" xml:space="preserve">
<style type="text/css">
	.st0{fill:#FFFFFF;}
	.st1{fill:#CE1124;}
	.st2{fill:#00247D;}
</style>
<g>
	<g>
		<rect x="-7.9" y="0.01" class="st0" width="75.78" height="39.93"/>
		<polygon class="st1" points="67.89,15.98 34.52,15.98 34.52,0.01 25.41,0.01 25.41,15.98 -7.87,15.98 -7.87,23.97 25.41,23.97 
			25.41,39.93 34.52,39.93 34.52,23.97 67.89,23.97 		"/>
	</g>
	<g>
		<polygon class="st2" points="-7.9,4.65 -7.9,13.35 8.63,13.35 		"/>
		<polygon class="st2" points="1.22,0 0.98,0.01 22.41,11.35 22.41,0 		"/>
		<polygon class="st1" points="17.54,13.29 -7.9,0.01 -7.9,3.14 11.47,13.29 		"/>
		<polygon class="st1" points="42.46,26.64 67.9,39.93 67.9,36.8 48.53,26.64 		"/>
	</g>
	<g>
		<polygon class="st2" points="-7.9,35.35 -7.9,26.65 8.63,26.65 		"/>
		<polygon class="st2" points="1.22,40 0.98,39.99 22.41,28.66 22.41,40 		"/>
		<polygon class="st1" points="17.41,26.64 -7.88,39.92 -1.97,39.93 22.43,27.18 22.43,26.64 		"/>
	</g>
	<g>
		<polygon class="st2" points="67.9,4.65 67.9,13.35 51.37,13.35 		"/>
		<polygon class="st2" points="58.78,0 59.02,0.01 37.59,11.34 37.59,0 		"/>
		<polygon class="st1" points="67.88,0.02 62.19,0.02 37.61,12.86 37.61,13.31 42.81,13.31 		"/>
	</g>
	<g>
		<polygon class="st2" points="67.9,35.34 67.9,26.65 51.37,26.65 		"/>
		<polygon class="st2" points="58.78,39.99 59.02,39.98 37.59,28.65 37.59,39.99 		"/>
	</g>
</g>
</svg>
